<svg width="80" height="80" viewBox="0 0 80 80" fill="none" xmlns="http://www.w3.org/2000/svg">
<path d="M40 5C20.6719 5 5 21.0781 5 40.8906C5 56.75 15.0312 70.1875 28.9375 74.9375C29.1562 74.9844 29.3438 75 29.5312 75C30.8281 75 31.3281 74.0469 31.3281 73.2188C31.3281 72.3594 31.2969 70.1094 31.2812 67.1094C29.9688 67.4062 28.7969 67.5312 27.75 67.5312C21.0156 67.5312 19.4844 62.2969 19.4844 62.2969C17.8906 58.1562 15.5938 57.0469 15.5938 57.0469C12.5469 54.9062 15.5781 54.8438 15.8125 54.8438H15.8281C19.3438 55.1562 21.1875 58.5625 21.1875 58.5625C22.9375 61.625 25.2812 62.4844 27.375 62.4844C29.0156 62.4844 30.5 61.9531 31.375 61.5469C31.6875 59.2344 32.5938 57.6563 33.5938 56.75C25.8281 55.8438 17.6562 52.7656 17.6562 39.0156C17.6562 35.0938 19.0156 31.8906 21.25 29.3906C20.8906 28.4844 19.6875 24.8281 21.5938 19.8906C21.5938 19.8906 21.8438 19.8125 22.375 19.8125C23.6406 19.8125 26.5 20.2969 31.2188 23.5781C34.0156 22.7812 37 22.3906 39.9844 22.375C42.9531 22.3906 45.9531 22.7812 48.75 23.5781C53.4688 20.2969 56.3281 19.8125 57.5938 19.8125C58.125 19.8125 58.375 19.8906 58.375 19.8906C60.2812 24.8281 59.0781 28.4844 58.7188 29.3906C60.9531 31.9063 62.3125 35.1094 62.3125 39.0156C62.3125 52.7969 54.125 55.8281 46.3281 56.7188C47.5781 57.8281 48.7031 60.0156 48.7031 63.3594C48.7031 68.1562 48.6562 72.0312 48.6562 73.2031C48.6562 74.0469 49.1406 75 50.4375 75C50.625 75 50.8438 74.9844 51.0625 74.9375C64.9844 70.1875 75 56.7344 75 40.8906C75 21.0781 59.3281 5 40 5Z" fill="white"/>
</svg>
