<svg width="14" height="14" viewBox="0 0 14 14" fill="none" xmlns="http://www.w3.org/2000/svg">
<path d="M12.6602 5.25H8.63789L7.41563 1.60234C7.35547 1.42461 7.18867 1.3125 7 1.3125C6.81133 1.3125 6.64453 1.42461 6.58438 1.60234L5.36211 5.25H1.3125C1.07187 5.25 0.875 5.44687 0.875 5.6875C0.875 5.71211 0.877734 5.73945 0.883203 5.76133C0.888672 5.85703 0.932422 5.96367 1.06641 6.07031L4.37227 8.4L3.10352 12.0887C3.04063 12.2664 3.10352 12.466 3.25391 12.5809C3.3332 12.6383 3.40703 12.6875 3.5 12.6875C3.59023 12.6875 3.69688 12.641 3.77344 12.5891L7 10.2895L10.2266 12.5891C10.3031 12.6437 10.4098 12.6875 10.5 12.6875C10.593 12.6875 10.6668 12.641 10.7434 12.5809C10.8965 12.466 10.9566 12.2691 10.8937 12.0887L9.625 8.4L12.9035 6.04844L12.9828 5.98008C13.0539 5.90352 13.125 5.79961 13.125 5.6875C13.125 5.44687 12.9008 5.25 12.6602 5.25V5.25Z" fill="white"/>
</svg>
